<?xml version="1.0" encoding="utf-8"?>
<!-- Generator: Adobe Illustrator 25.4.1, SVG Export Plug-In . SVG Version: 6.00 Build 0)  -->
<svg version="1.1" id="_15_-_Email" xmlns="http://www.w3.org/2000/svg" xmlns:xlink="http://www.w3.org/1999/xlink" x="0px"
	 y="0px" viewBox="0 0 30 30" style="enable-background:new 0 0 30 30;" xml:space="preserve">
<style type="text/css">
	.st0{fill-rule:evenodd;clip-rule:evenodd;fill:#ECECEC;}
</style>
<path id="Path_243" class="st0" d="M30,7.2c0-1.7-1.3-3-3-3H3c-1.7,0-3,1.3-3,3v15.6c0,1.7,1.3,3,3,3h24c1.7,0,3-1.3,3-3V7.2z
	 M28,7.2v15.6c0,0.6-0.4,1-1,1H3c-0.6,0-1-0.4-1-1V7.2c0-0.6,0.4-1,1-1h24C27.6,6.2,28,6.6,28,7.2z"/>
<path id="Path_244" class="st0" d="M1.9,7.5l12.6,7c0.3,0.2,0.7,0.2,1,0l12.6-7c0.5-0.3,0.7-0.9,0.4-1.4s-0.9-0.7-1.4-0.4l0,0
	L15,12.5L2.9,5.7C2.4,5.5,1.8,5.6,1.5,6.1S1.4,7.2,1.9,7.5z"/>
</svg>
